<svg width="22" height="22" viewBox="0 0 22 22" fill="none" xmlns="http://www.w3.org/2000/svg">
<path d="M19.9953 21.2922C19.7813 21.3075 19.5639 21.2323 19.3847 21.0531L15.3286 16.997C13.7343 18.3061 11.6888 19.0902 9.48221 19.0902C4.40573 19.0902 0.277832 14.9623 0.277832 9.88586C0.277832 4.80938 4.40573 0.681473 9.48221 0.681473C14.5586 0.681473 18.6864 4.8092 18.6866 9.88553L19.9953 21.2922ZM19.9953 21.2922C20.2025 21.2773 20.3889 21.1791 20.5251 21.0439M19.9953 21.2922L20.5251 21.0439M20.5251 21.0439C20.6612 20.9088 20.7605 20.7233 20.7758 20.5167M20.5251 21.0439L20.7758 20.5167M20.7758 20.5167C20.7916 20.3034 20.7157 20.0875 20.5361 19.9113M20.7758 20.5167L20.5361 19.9113M20.5361 19.9113C20.5358 19.9109 20.5354 19.9105 20.535 19.9102M20.5361 19.9113L20.535 19.9102M20.535 19.9102L16.4842 15.8485C17.9063 14.1905 18.6894 12.0754 18.6866 9.88586L20.535 19.9102ZM1.90163 9.88586C1.90163 5.70446 5.31047 2.3064 9.48109 2.3064C13.6627 2.3064 17.0606 5.70422 17.0606 9.88586C17.0606 14.0675 13.6627 17.4653 9.48109 17.4653C5.31047 17.4653 1.90163 14.0673 1.90163 9.88586Z" fill="black" stroke="black" stroke-width="0.5"/>
</svg>
